<?xml version="1.0" encoding="UTF-8" standalone="no"?>
<!-- Created with Inkscape (http://www.inkscape.org/) -->

<svg
   width="33.866665mm"
   height="9.0414553mm"
   viewBox="0 0 33.866665 9.0414553"
   version="1.1"
   id="svg4981"
   inkscape:version="1.2.2 (732a01da63, 2022-12-09)"
   sodipodi:docname="logo.svg"
   inkscape:export-filename="logo.svg"
   inkscape:export-xdpi="96"
   inkscape:export-ydpi="96"
   xmlns:inkscape="http://www.inkscape.org/namespaces/inkscape"
   xmlns:sodipodi="http://sodipodi.sourceforge.net/DTD/sodipodi-0.dtd"
   xmlns="http://www.w3.org/2000/svg"
   xmlns:svg="http://www.w3.org/2000/svg">
  <sodipodi:namedview
     id="namedview4983"
     pagecolor="#ffffff"
     bordercolor="#000000"
     borderopacity="0.25"
     inkscape:showpageshadow="2"
     inkscape:pageopacity="0.0"
     inkscape:pagecheckerboard="0"
     inkscape:deskcolor="#d1d1d1"
     inkscape:document-units="mm"
     showgrid="false"
     inkscape:zoom="1.4324916"
     inkscape:cx="145.20155"
     inkscape:cy="45.724527"
     inkscape:window-width="1920"
     inkscape:window-height="991"
     inkscape:window-x="-9"
     inkscape:window-y="-9"
     inkscape:window-maximized="1"
     inkscape:current-layer="layer1" />
  <defs
     id="defs4978" />
  <g
     inkscape:label="Layer 1"
     inkscape:groupmode="layer"
     id="layer1">
    <g
       id="g1227"
       transform="matrix(0.31598878,0,0,0.31598878,6.7523642,-23.835609)">
      <path
         d="m -17.85501,75.43182 v 25.04579 H -21.369 V 75.43182 Z"
         style="font-size:35.2777px;font-family:Bahnschrift;-inkscape-font-specification:Bahnschrift;text-align:center;text-anchor:middle;fill:#000000;stroke-width:2.5;stroke-linecap:square;paint-order:markers fill stroke"
         id="path502" />
      <path
         d="M -11.998362,100.47761 V 82.597602 h 3.51399 v 17.880008 z m 10.8520269,0 V 89.642807 q 0,-1.894798 -0.98185,-2.928325 -0.9646246,-1.033526 -2.7560702,-1.033526 -1.7225439,0 -2.669943,0.912948 -0.9301737,0.912948 -0.9301737,2.56659 l -0.3617342,-3.445087 q 0.826821,-1.619192 2.1531798,-2.497689 1.3435843,-0.878497 2.9627755,-0.878497 2.9110991,0 4.4958395,1.912023 1.6019658,1.894799 1.6019658,5.374337 v 10.852029 z"
         style="font-size:35.2777px;font-family:Bahnschrift;-inkscape-font-specification:Bahnschrift;text-align:center;text-anchor:middle;fill:#000000;stroke-width:2.5;stroke-linecap:square;paint-order:markers fill stroke"
         id="path504" />
      <path
         d="M 40.935539,100.47761 V 82.597602 h 3.496764 V 100.47761 Z M 33.666404,82.597602 v 10.869252 q 0,1.877573 0.947399,2.911099 0.964624,1.016301 2.704394,1.016301 1.739769,0 2.669943,-0.912948 0.947399,-0.930174 0.947399,-2.601041 l 0.241156,3.73792 q -0.482312,1.205781 -1.688093,2.170405 -1.205781,0.9474 -3.152255,0.9474 -2.962776,0 -4.581967,-1.894799 -1.601966,-1.912024 -1.601966,-5.374337 V 82.597602 Z"
         style="font-size:35.2777px;font-family:Bahnschrift;-inkscape-font-specification:Bahnschrift;text-align:center;text-anchor:middle;fill:#000000;stroke-width:2.5;stroke-linecap:square;paint-order:markers fill stroke"
         id="path510" />
      <path
         d="M 49.772188,78.945809 V 75.43182 h 3.513989 v 3.513989 z m 0,21.531801 V 82.597602 h 3.513989 v 17.880008 z"
         style="font-size:35.2777px;font-family:Bahnschrift;-inkscape-font-specification:Bahnschrift;text-align:center;text-anchor:middle;fill:#000000;stroke-width:2.5;stroke-linecap:square;paint-order:markers fill stroke"
         id="path512" />
      <path
         d="M 58.626062,100.47761 V 82.597602 h 3.51399 v 17.880008 z m 9.835726,-13.64255 q -0.465087,-0.568439 -1.17133,-0.861272 -0.706243,-0.292832 -1.636417,-0.292832 -1.670867,0 -2.601041,0.930174 -0.912948,0.912948 -0.912948,2.549364 l -0.361735,-3.445087 q 0.809596,-1.584741 2.118729,-2.480463 1.326359,-0.895723 2.9111,-0.895723 1.223006,0 2.204856,0.361734 0.999075,0.344509 1.739769,1.033526 z"
         style="font-size:35.2777px;font-family:Bahnschrift;-inkscape-font-specification:Bahnschrift;text-align:center;text-anchor:middle;fill:#000000;stroke-width:2.5;stroke-linecap:square;paint-order:markers fill stroke"
         id="path514" />
      <path
         d="M 73.681093,100.47761 V 82.597602 h 3.51399 v 17.880008 z m 9.835726,-13.64255 q -0.465087,-0.568439 -1.17133,-0.861272 -0.706243,-0.292832 -1.636417,-0.292832 -1.670868,0 -2.601041,0.930174 -0.912948,0.912948 -0.912948,2.549364 l -0.361735,-3.445087 q 0.809596,-1.584741 2.118729,-2.480463 1.326359,-0.895723 2.911099,-0.895723 1.223007,0 2.204857,0.361734 0.999075,0.344509 1.739769,1.033526 z"
         style="font-size:35.2777px;font-family:Bahnschrift;-inkscape-font-specification:Bahnschrift;text-align:center;text-anchor:middle;fill:#000000;stroke-width:2.5;stroke-linecap:square;paint-order:markers fill stroke"
         id="path516" />
      <g
         id="g1164"
         transform="rotate(-45,16.182093,91.428229)">
        <circle
           style="fill:none;stroke:#000000;stroke-width:3.51367;stroke-linecap:square;stroke-dasharray:none;stroke-opacity:1;paint-order:markers fill stroke"
           id="path539"
           cx="16.174164"
           cy="91.408607"
           r="7.3121648" />
        <rect
           style="fill:#000000;fill-opacity:1;stroke:none;stroke-width:3.514;stroke-linecap:square;stroke-dasharray:none;stroke-opacity:1;paint-order:markers fill stroke"
           id="rect1160"
           width="3.5139999"
           height="10.542"
           x="14.417"
           y="96.963997" />
      </g>
    </g>
  </g>
</svg>
